<svg id="Layer_1" data-name="Layer 1" xmlns="http://www.w3.org/2000/svg" viewBox="0 0 514.17 202.14"><title>Radar_Ionwiki_Logo</title><path d="M392.62,177.93h7.74l7.6,35.53h.13l9.4-35.53h5.31l9.36,35.53h.14l7.63-35.53h7.74l-12.08,50h-6.15l-9.23-36h-.13l-9.27,36H404.7Z" transform="translate(-33 -105.61)"/><path d="M462.76,177.93h7.33v50h-7.33Z" transform="translate(-33 -105.61)"/><path d="M488.24,177.93h7.33v25.75h.14l19.94-25.75h8.7l-15.51,19.71L526,227.92h-8.71L504.1,203.47l-8.51,9.22v15.23h-7.33Z" transform="translate(-33 -105.61)"/><path d="M539.84,177.93h7.33v50h-7.33Z" transform="translate(-33 -105.61)"/><path d="M240.08,178.32h7.14V227h-7.14Z" transform="translate(-33 -105.61)"/><path d="M266.86,202.65a86.36,86.36,0,0,1,.48-11.37,13.93,13.93,0,0,1,1.58-4.65,16.67,16.67,0,0,1,5.5-6,15.92,15.92,0,0,1,9.27-2.73,16.17,16.17,0,0,1,14.73,8.75,11.25,11.25,0,0,1,1.65,4.63,97.71,97.71,0,0,1,.42,11.35,96.59,96.59,0,0,1-.42,11.28,11.46,11.46,0,0,1-1.65,4.7,15.64,15.64,0,0,1-5.36,5.94,16.53,16.53,0,0,1-9.37,2.81,17,17,0,0,1-14.77-8.75q-.51-1.1-.93-2.1a13.56,13.56,0,0,1-.65-2.6A84.71,84.71,0,0,1,266.86,202.65Zm7.13,0a57.56,57.56,0,0,0,.52,9.73,9.42,9.42,0,0,0,9.16,7.66,8.52,8.52,0,0,0,4.44-1.11,8,8,0,0,0,2.85-2.44,8.79,8.79,0,0,0,1.91-4.11,63.31,63.31,0,0,0,.48-9.73,64.23,64.23,0,0,0-.48-9.8,9,9,0,0,0-9.2-7.55,9.63,9.63,0,0,0-4.34,1,9,9,0,0,0-3,2.51,8.19,8.19,0,0,0-1.85,4,59.92,59.92,0,0,0-.48,9.84Z" transform="translate(-33 -105.61)"/><path d="M320.89,178.32h6.73L349,212.91h.13V178.32h7.14V227h-6.76L328.2,192.41H328V227h-7.14Z" transform="translate(-33 -105.61)"/><path d="M192.86,298.36,163.11,268.8A89.29,89.29,0,0,0,113,105.61H33V115h80a79.89,79.89,0,0,1,43.3,147L146,251.81a65.8,65.8,0,0,0-33-122.7H33v9.41h80a56.4,56.4,0,0,1,26.13,106.39l-10.66-10.6A42.31,42.31,0,0,0,113,152.62H33l75.67,75.22H33v9.4h80a43,43,0,0,0,4.81-.28l11.92,11.86A56.5,56.5,0,0,1,113,251.35H33v9.4h80a65.72,65.72,0,0,0,24.12-4.59l10.74,10.68a79.42,79.42,0,0,1-34.86,8H33v9.41h80a88.86,88.86,0,0,0,41.87-10.45l24.71,24.55H33v9.4H202.28ZM113,162h0a32.91,32.91,0,0,1,8,64.84L55.7,162Z" transform="translate(-33 -105.61)"/></svg>